<?xml version="1.0" encoding="utf-8"?>
<!-- Generator: Adobe Illustrator 16.0.0, SVG Export Plug-In . SVG Version: 6.00 Build 0)  -->
<!DOCTYPE svg PUBLIC "-//W3C//DTD SVG 1.1//EN" "http://www.w3.org/Graphics/SVG/1.1/DTD/svg11.dtd">
<svg version="1.1" id="Layer_1" xmlns="http://www.w3.org/2000/svg" xmlns:xlink="http://www.w3.org/1999/xlink" x="0px" y="0px"
	 viewBox="0 0 500 300" enable-background="new 0 0 500 300" xml:space="preserve">
<g>
	<g>
		<circle fill="#3579DE" cx="250.457" cy="151.336" r="115.272"/>
		<g>
			<g>
				<g>
					<path fill="#FF781F" d="M146.8,161.104c2.28,1.537,3.582,4.356,2.894,6.265s0.018,3.814,1.571,4.235s4.518,1.805,6.589,3.076
						c2.071,1.271,4.332,4.042,5.022,6.16c0.691,2.117,2.386,3.85,3.766,3.85s2.37-1.038,2.2-2.308s-0.596-3.175-0.947-4.234
						s-0.777-3.138-0.947-4.618s-1.014-2.691-1.876-2.691s-3.222-1.524-5.244-3.389l-0.177-0.162
						c-2.022-1.864-3.396-5.294-3.054-7.623s1.894-3.716,3.446-3.081s4.396-0.455,6.32-2.421l0.539-0.551
						c1.923-1.966,4.913-4.788,6.644-6.271s1.592-2.697-0.309-2.697s-2.893-1.214-2.205-2.697c0.688-1.483,2.807-3.043,4.708-3.466
						c1.901-0.422,4.164-2.154,5.028-3.847s0.721-3.427-0.319-3.852c-1.04-0.426-1.605-1.812-1.257-3.081
						c0.348-1.27,1.762-1.961,3.142-1.539c1.38,0.423,4.347-0.096,6.594-1.153c2.247-1.058,3.519-0.538,2.828,1.156
						c-0.691,1.693-0.265,2.387,0.948,1.541s2.481-3.771,2.818-6.5l0.012-0.092c0.337-2.729-0.517-5.828-1.897-6.885
						c-1.38-1.058-3.355-1.058-4.389,0c-1.034,1.058-3.011,0.711-4.394-0.77s-3.221-3.561-4.085-4.622
						c-0.864-1.061-1.993-0.542-2.509,1.154c-0.516,1.695-1.223,1.523-1.571-0.383c-0.348-1.906-2.469-3.986-4.713-4.622
						s-4.08,0.229-4.08,1.923s0.144,5.158,0.319,7.699s-0.531,6.353-1.571,8.472s-2.736,1.772-3.771-0.77s-2.587-5.14-3.451-5.773
						s-1.286-2.019-0.938-3.079c0.348-1.061-0.779-2.794-2.505-3.853s-2.011-3.832-0.633-6.162s2.505-5.276,2.505-6.546
						c0-1.271,0.988-2.656,2.195-3.079c1.207-0.422,2.76-1.635,3.451-2.694s0.129-2.792-1.249-3.85
						c-1.378-1.059-3.353-1.579-4.389-1.156c-1.036,0.422-2.123-0.194-2.415-1.37s-0.847-1.628-1.233-1.005s-1.37,3.171-1.37,4.255
						s-0.502,1.97-1.116,1.97s-1.931,2.097-2.927,4.661c0,0-12.231,31.474-12.231,51.921c0,2.528,0,2.528,0,2.528
						c0.207,2.729,0.701,5.275,1.098,5.658s2.587,1.954,4.867,3.491L146.8,161.104z"/>
					<path fill="none" stroke="#000000" stroke-width="2" stroke-miterlimit="10" d="M146.8,161.104
						c2.28,1.537,3.582,4.356,2.894,6.265s0.018,3.814,1.571,4.235s4.518,1.805,6.589,3.076c2.071,1.271,4.332,4.042,5.022,6.16
						c0.691,2.117,2.386,3.85,3.766,3.85s2.37-1.038,2.2-2.308s-0.596-3.175-0.947-4.234s-0.777-3.138-0.947-4.618
						s-1.014-2.691-1.876-2.691s-3.222-1.524-5.244-3.389l-0.177-0.162c-2.022-1.864-3.396-5.294-3.054-7.623
						s1.894-3.716,3.446-3.081s4.396-0.455,6.32-2.421l0.539-0.551c1.923-1.966,4.913-4.788,6.644-6.271s1.592-2.697-0.309-2.697
						s-2.893-1.214-2.205-2.697c0.688-1.483,2.807-3.043,4.708-3.466c1.901-0.422,4.164-2.154,5.028-3.847s0.721-3.427-0.319-3.852
						c-1.04-0.426-1.605-1.812-1.257-3.081c0.348-1.27,1.762-1.961,3.142-1.539c1.38,0.423,4.347-0.096,6.594-1.153
						c2.247-1.058,3.519-0.538,2.828,1.156c-0.691,1.693-0.265,2.387,0.948,1.541s2.481-3.771,2.818-6.5l0.012-0.092
						c0.337-2.729-0.517-5.828-1.897-6.885c-1.38-1.058-3.355-1.058-4.389,0c-1.034,1.058-3.011,0.711-4.394-0.77
						s-3.221-3.561-4.085-4.622c-0.864-1.061-1.993-0.542-2.509,1.154c-0.516,1.695-1.223,1.523-1.571-0.383
						c-0.348-1.906-2.469-3.986-4.713-4.622s-4.08,0.229-4.08,1.923s0.144,5.158,0.319,7.699s-0.531,6.353-1.571,8.472
						s-2.736,1.772-3.771-0.77s-2.587-5.14-3.451-5.773s-1.286-2.019-0.938-3.079c0.348-1.061-0.779-2.794-2.505-3.853
						s-2.011-3.832-0.633-6.162s2.505-5.276,2.505-6.546c0-1.271,0.988-2.656,2.195-3.079c1.207-0.422,2.76-1.635,3.451-2.694
						s0.129-2.792-1.249-3.85c-1.378-1.059-3.353-1.579-4.389-1.156c-1.036,0.422-2.123-0.194-2.415-1.37s-0.847-1.628-1.233-1.005
						s-1.37,3.171-1.37,4.255s-0.502,1.97-1.116,1.97s-1.931,2.097-2.927,4.661c0,0-12.231,31.474-12.231,51.921
						c0,2.528,0,2.528,0,2.528c0.207,2.729,0.701,5.275,1.098,5.658s2.587,1.954,4.867,3.491L146.8,161.104z"/>
				</g>
			</g>
		</g>
		<g>
			<g>
				<g>
					<path fill="#FF781F" d="M329.321,207.077c-1.167,0.635-2.333,2.282-2.591,3.66s0.771,3.663,2.286,5.077
						c1.516,1.413,1.779,3.008,0.588,3.541c-1.191,0.534-2.758,1.729-3.479,2.655s0.126,2.124,1.885,2.662c0,0,0,0-1.076,1.1
						c-1.08,1.101-1.592,1.684-1.592,1.684c-1.814,2.066-2.789,4.198-2.165,4.738s2.413,2.599,3.978,4.576c0,0,0,0,1.078-1.097
						c1.076-1.099,1.335-1.409,1.335-1.409c1.764-2.11,4.19-5.299,5.395-7.085s3.313-4.36,4.689-5.721s3.566-4.454,4.868-6.877
						l5.373-9.996c1.302-2.423,0.214-3.753-2.419-2.957l-5.592,1.689c-2.633,0.796-5.761,1.564-6.952,1.707
						c-1.191,0.144-4.137,0.647-3.906,0.736S330.488,206.442,329.321,207.077z"/>
					<path fill="none" stroke="#000000" stroke-width="2" stroke-miterlimit="10" d="M329.321,207.077
						c-1.167,0.635-2.333,2.282-2.591,3.66s0.771,3.663,2.286,5.077c1.516,1.413,1.779,3.008,0.588,3.541
						c-1.191,0.534-2.758,1.729-3.479,2.655s0.126,2.124,1.885,2.662c0,0,0,0-1.076,1.1c-1.08,1.101-1.592,1.684-1.592,1.684
						c-1.814,2.066-2.789,4.198-2.165,4.738s2.413,2.599,3.978,4.576c0,0,0,0,1.078-1.097c1.076-1.099,1.335-1.409,1.335-1.409
						c1.764-2.11,4.19-5.299,5.395-7.085s3.313-4.36,4.689-5.721s3.566-4.454,4.868-6.877l5.373-9.996
						c1.302-2.423,0.214-3.753-2.419-2.957l-5.592,1.689c-2.633,0.796-5.761,1.564-6.952,1.707
						c-1.191,0.144-4.137,0.647-3.906,0.736S330.488,206.442,329.321,207.077z"/>
				</g>
			</g>
		</g>
		<g>
			<g>
				<g>
					<path fill="#C7242F" d="M218.609,68.336c-0.318,0-0.318,0-0.318,0c-1.316-1.838-1.684-4.788-0.817-6.553
						s-0.674-3.21-3.424-3.21L192.42,63.88c-2.697,0.537-3.701,2.091-2.231,3.453c1.47,1.362,3.019,3.41,3.442,4.552
						c0.423,1.141,1.459,1.923,2.303,1.737c0.844-0.185,2.217,1.621,3.053,4.015s2.159,5.073,2.94,5.956
						c0.781,0.882,1.053,2.327,0.604,3.21c-0.449,0.884-1.139,2.299-1.534,3.146s0.46,2.444,1.899,3.55
						c1.439,1.106,1.444,2.489,0.01,3.075c0,0,0,0-0.432,0c-0.44,0-2.504-0.54-2.071,2.148c0.431,2.673,2.943,4.68,2.943,5.084
						c0,0.394,2.937-0.536,2.937-0.942c0-0.399,0-0.399,0-0.399c0.242-2.139,1.022-5.633,1.734-7.766c0,0,0,0,0.901-0.933
						c0.862-0.934,4.896-1.069,4.352-4.146c-0.543-3.085-0.319-2.949,0.216-3.349c0.555-0.403,3.385-0.933,3.816-1.477
						c0.441-0.525-0.432-4.272-0.655-4.68c-0.216-0.398-0.216-0.398-0.216-0.398c-1.914-1.47-1.864-3.456,0.112-4.413
						c0,0,0,0,0.544-0.404c0.553-0.403,3.611,4.146,4.803,1.201c1.201-2.945,2.288-5.885,1.528-6.561
						C222.651,68.872,218.947,68.336,218.609,68.336z"/>
					<path fill="none" stroke="#000000" stroke-width="2" stroke-miterlimit="10" d="M218.609,68.336c-0.318,0-0.318,0-0.318,0
						c-1.316-1.838-1.684-4.788-0.817-6.553s-0.674-3.21-3.424-3.21L192.42,63.88c-2.697,0.537-3.701,2.091-2.231,3.453
						c1.47,1.362,3.019,3.41,3.442,4.552c0.423,1.141,1.459,1.923,2.303,1.737c0.844-0.185,2.217,1.621,3.053,4.015
						s2.159,5.073,2.94,5.956c0.781,0.882,1.053,2.327,0.604,3.21c-0.449,0.884-1.139,2.299-1.534,3.146s0.46,2.444,1.899,3.55
						c1.439,1.106,1.444,2.489,0.01,3.075c0,0,0,0-0.432,0c-0.44,0-2.504-0.54-2.071,2.148c0.431,2.673,2.943,4.68,2.943,5.084
						c0,0.394,2.937-0.536,2.937-0.942c0-0.399,0-0.399,0-0.399c0.242-2.139,1.022-5.633,1.734-7.766c0,0,0,0,0.901-0.933
						c0.862-0.934,4.896-1.069,4.352-4.146c-0.543-3.085-0.319-2.949,0.216-3.349c0.555-0.403,3.385-0.933,3.816-1.477
						c0.441-0.525-0.432-4.272-0.655-4.68c-0.216-0.398-0.216-0.398-0.216-0.398c-1.914-1.47-1.864-3.456,0.112-4.413
						c0,0,0,0,0.544-0.404c0.553-0.403,3.611,4.146,4.803,1.201c1.201-2.945,2.288-5.885,1.528-6.561
						C222.651,68.872,218.947,68.336,218.609,68.336z"/>
				</g>
			</g>
		</g>
		<g>
			<g>
				<g>
					<path fill="#FFDD00" d="M232.534,252.528c-2.008,0.194-4.354-0.84-5.212-2.298c-0.859-1.459-2.051-4.849-2.647-7.533
						l-0.81-3.638c-0.597-2.685-1.328-6.613-1.624-8.73s-1.795-5.625-3.33-7.794s-2.022-6.059-1.083-8.644l0.139-0.38
						c0.94-2.585,1.634-3.374,1.543-1.754c-0.091,1.621,2.069,2.98,4.801,3.023c2.732,0.042,4.222-2.047,3.313-4.643l-2.565-7.317
						c-0.91-2.596-3.122-4.218-4.916-3.605s-3.606-1.11-4.027-3.828l-0.904-5.836c-0.421-2.718-2.489-5.262-4.597-5.653
						s-4.744,0.675-5.858,2.371c-1.115,1.695-1.343,5.226-0.507,7.846c0,0,0.388,1.216-2.264,0.907
						c-2.652-0.319-2.652-0.319-2.652-0.319c-2.242-1.309-4.722-2.949-5.511-3.645s-3.641-0.829-6.339-0.296
						c0,0-3.199,0.632-3.229,1.989c-0.001,1.346-0.001,1.346-0.001,1.346c-0.963,0.91-2.951,0.079-4.418-1.846
						s-3.96-2.533-5.541-1.352c-1.581,1.181-2.694,2.186-2.476,2.232c0.219,0.048,0.931,2.187,1.583,4.754
						c0.652,2.568,2.293,6.439,3.647,8.604s2.086,5.317,1.628,7.006s1.002,4.022,3.246,5.187c2.244,1.163,5.248,0.192,6.675-2.158
						c0,0,1.469-2.42,3.703-1.524c2.243,0.896,4.082,2.336,4.082,2.336c2.165,1.696,3.865,3.921,3.778,4.944
						s-1.11,1.896-2.274,1.941s-0.525,1.345,1.419,2.89s4.194,2.65,4.999,2.457s2.182,1.486,3.06,3.732s0.912,4.082,0.077,4.079
						s-2.382-0.404-3.437-0.893c-1.055-0.487-0.982,0.78,0.162,2.816c1.144,2.037,3.107,2.288,4.363,0.558c0,0,0,0,1.73-0.304
						c1.731-0.301,2.173,0.196,2.173,0.196c1.828,2.055,3.051,4.374,2.718,5.155s-1.269,1.886-2.08,2.454s-0.83,1.848-0.042,2.843
						s2.563,1.874,3.945,1.953c0,0,0,0,0.386,0.495c0.404,0.483,5.024,1.909,6.203,2.313c0.324,0.103,0.324,0.103,0.324,0.103
						c0.496,0.812,3.097,1.966,5.781,2.565l5.005,0.961c2.714,0.441,4.257-0.605,3.429-2.326S234.542,252.334,232.534,252.528z"/>
					<path fill="none" stroke="#000000" stroke-width="2" stroke-miterlimit="10" d="M232.534,252.528
						c-2.008,0.194-4.354-0.84-5.212-2.298c-0.859-1.459-2.051-4.849-2.647-7.533l-0.81-3.638c-0.597-2.685-1.328-6.613-1.624-8.73
						s-1.795-5.625-3.33-7.794s-2.022-6.059-1.083-8.644l0.139-0.38c0.94-2.585,1.634-3.374,1.543-1.754
						c-0.091,1.621,2.069,2.98,4.801,3.023c2.732,0.042,4.222-2.047,3.313-4.643l-2.565-7.317c-0.91-2.596-3.122-4.218-4.916-3.605
						s-3.606-1.11-4.027-3.828l-0.904-5.836c-0.421-2.718-2.489-5.262-4.597-5.653s-4.744,0.675-5.858,2.371
						c-1.115,1.695-1.343,5.226-0.507,7.846c0,0,0.388,1.216-2.264,0.907c-2.652-0.319-2.652-0.319-2.652-0.319
						c-2.242-1.309-4.722-2.949-5.511-3.645s-3.641-0.829-6.339-0.296c0,0-3.199,0.632-3.229,1.989
						c-0.001,1.346-0.001,1.346-0.001,1.346c-0.963,0.91-2.951,0.079-4.418-1.846s-3.96-2.533-5.541-1.352
						c-1.581,1.181-2.694,2.186-2.476,2.232c0.219,0.048,0.931,2.187,1.583,4.754c0.652,2.568,2.293,6.439,3.647,8.604
						s2.086,5.317,1.628,7.006s1.002,4.022,3.246,5.187c2.244,1.163,5.248,0.192,6.675-2.158c0,0,1.469-2.42,3.703-1.524
						c2.243,0.896,4.082,2.336,4.082,2.336c2.165,1.696,3.865,3.921,3.778,4.944s-1.11,1.896-2.274,1.941s-0.525,1.345,1.419,2.89
						s4.194,2.65,4.999,2.457s2.182,1.486,3.06,3.732s0.912,4.082,0.077,4.079s-2.382-0.404-3.437-0.893
						c-1.055-0.487-0.982,0.78,0.162,2.816c1.144,2.037,3.107,2.288,4.363,0.558c0,0,0,0,1.73-0.304
						c1.731-0.301,2.173,0.196,2.173,0.196c1.828,2.055,3.051,4.374,2.718,5.155s-1.269,1.886-2.08,2.454s-0.83,1.848-0.042,2.843
						s2.563,1.874,3.945,1.953c0,0,0,0,0.386,0.495c0.404,0.483,5.024,1.909,6.203,2.313c0.324,0.103,0.324,0.103,0.324,0.103
						c0.496,0.812,3.097,1.966,5.781,2.565l5.005,0.961c2.714,0.441,4.257-0.605,3.429-2.326S234.542,252.334,232.534,252.528z"/>
				</g>
			</g>
		</g>
		<g>
			<g>
				<g>
					<path fill="#C7242F" d="M300.898,164.902c-2.702-0.507-6.427-2.587-8.276-4.623c0,0-1.435-1.579-1.435-2.198
						c0-0.604,0-0.604,0-0.604c0-1.898-1.868-4.706-4.152-6.237l-11.379-7.634c-2.284-1.532-6.016-3.06-8.293-3.395
						c-2.277-0.334-5.521,0.581-7.207,2.034s-4.897,3.949-7.136,5.547l-4.945,3.53c-2.238,1.598-3.025,2.996-1.748,3.107
						c1.277,0.112,3.438-0.664,4.804-1.724s4.382-2.795,6.703-3.856c2.321-1.061,2.677-0.292,0.79,1.708l-5.396,5.722
						c-1.887,2.001-5,5.25-6.918,7.221c0,0-3.628,3.727-3.628,4.54c0,0.811,4.223,13.53,4.223,13.53
						c0.866,2.609,3.432,3.475,5.701,1.921l4.506-3.085c2.27-1.554,5.205-2.184,6.524-1.401c1.319,0.783,2.174,2.933,1.899,4.775
						c-0.274,1.844,0.469,4.311,1.652,5.482c1.184,1.171,3.79,2.313,5.792,2.536s3.085,2.42,2.405,4.881s-2.131,5.614-3.225,7.009
						c-1.094,1.396-0.275,3.907,1.82,5.583s3.994,2.772,4.221,2.437c0.227-0.335-0.335,0.761-1.247,2.435s-2.023,3.503-2.471,4.063
						c0,0,0,0,0,0.816c0,0.81,0.426,1.473,0.426,1.473c1.487,2.314,3.006,5.398,3.375,6.854c0,0,0,0-0.83,1.426
						c-0.834,1.413-1.98,2.028-1.486,3.045c0.506,1.015,3.316,1.828,4.463,1.828c1.168,0,12.102-2.242,11.092-5.29
						c-0.99-3.047-3.809-7.511-3.305-8.728c0.486-1.223,2.148-2.847,6.461-7.519c4.305-4.661,6.779-14.428,5.293-15.437
						c-1.494-1.01-4.922-5.552-4.922-5.552c-1.656-2.195-1.346-5.504,0.69-7.352c0,0,3.905-3.546,5.399-4.967
						c1.486-1.42,8.777-4.474,7.77-8.529C307.928,166.22,300.898,164.902,300.898,164.902z"/>
					<path fill="none" stroke="#000000" stroke-width="2" stroke-miterlimit="10" d="M300.898,164.902
						c-2.702-0.507-6.427-2.587-8.276-4.623c0,0-1.435-1.579-1.435-2.198c0-0.604,0-0.604,0-0.604c0-1.898-1.868-4.706-4.152-6.237
						l-11.379-7.634c-2.284-1.532-6.016-3.06-8.293-3.395c-2.277-0.334-5.521,0.581-7.207,2.034s-4.897,3.949-7.136,5.547
						l-4.945,3.53c-2.238,1.598-3.025,2.996-1.748,3.107c1.277,0.112,3.438-0.664,4.804-1.724s4.382-2.795,6.703-3.856
						c2.321-1.061,2.677-0.292,0.79,1.708l-5.396,5.722c-1.887,2.001-5,5.25-6.918,7.221c0,0-3.628,3.727-3.628,4.54
						c0,0.811,4.223,13.53,4.223,13.53c0.866,2.609,3.432,3.475,5.701,1.921l4.506-3.085c2.27-1.554,5.205-2.184,6.524-1.401
						c1.319,0.783,2.174,2.933,1.899,4.775c-0.274,1.844,0.469,4.311,1.652,5.482c1.184,1.171,3.79,2.313,5.792,2.536
						s3.085,2.42,2.405,4.881s-2.131,5.614-3.225,7.009c-1.094,1.396-0.275,3.907,1.82,5.583s3.994,2.772,4.221,2.437
						c0.227-0.335-0.335,0.761-1.247,2.435s-2.023,3.503-2.471,4.063c0,0,0,0,0,0.816c0,0.81,0.426,1.473,0.426,1.473
						c1.487,2.314,3.006,5.398,3.375,6.854c0,0,0,0-0.83,1.426c-0.834,1.413-1.98,2.028-1.486,3.045
						c0.506,1.015,3.316,1.828,4.463,1.828c1.168,0,12.102-2.242,11.092-5.29c-0.99-3.047-3.809-7.511-3.305-8.728
						c0.486-1.223,2.148-2.847,6.461-7.519c4.305-4.661,6.779-14.428,5.293-15.437c-1.494-1.01-4.922-5.552-4.922-5.552
						c-1.656-2.195-1.346-5.504,0.69-7.352c0,0,3.905-3.546,5.399-4.967c1.486-1.42,8.777-4.474,7.77-8.529
						C307.928,166.22,300.898,164.902,300.898,164.902z"/>
				</g>
			</g>
		</g>
		<g>
			<g>
				<g>
					<path fill="#2ABB2A" d="M299.779,56.93c-2.523-2.7-2.983-4.745-2.983-4.745c-0.604-2.683-2.958-3.611-5.23-2.063
						c0,0-1.513,1.03-3.728,4.496c-2.193,3.466-9.727,13.094-10.973,12.7c-1.277-0.375-2.814-3.841-2.525-5.388
						c0.32-1.539-1.256-1.923,1.896-5.385c3.143-3.47,0-10.402-1.266-10.402c-1.24,0-0.92-1.542-7.223,1.164
						C261.482,50,261.482,50,261.482,50c-0.345,1.691-0.062,3.423,0.629,3.847s-0.407,2.287-2.44,4.138l-4.867,4.433
						c-2.033,1.852-3.96,5.601-4.282,8.332l-0.055,0.461c-0.322,2.731-0.377,5.919-0.122,7.085s2.002,0.478,3.882-1.53
						c0,0,3.795-4.051,5.998-3.286c2.188,0.778-0.316,12.709-2.832,13.868c-2.504,1.153-2.512,1.153-2.512,1.153
						c-2.75,0-7.106,0.792-9.68,1.76c0,0-3.5,1.316-3.5,4.402c0,3.082,0,3.082,0,3.082c1.383,0.213,1.31,2.033-0.163,4.044
						s-2.678,5.215-2.678,7.121c0,1.906,2.123,3.292,4.718,3.08s5.075-2.03,5.511-4.04c0.436-2.01,3.031-3.886,5.767-4.17
						c0,0,2.538-0.263,2.856,0.891c0.311,1.154,0.311,8.479,6.277,5.777c5.955-2.691,5.025-6.546,5.955-7.701
						c0.957-1.158,5.465-0.234,5.465-0.234c2.694,0.552,4.335,1.523,3.646,2.157c-0.688,0.635-2.716,2.863-4.505,4.951l-0.713,0.831
						c-1.789,2.088-1.35,4.998,0.976,6.465l6.896,4.352c2.325,1.467,5.531,0.833,7.124-1.409l0.508-0.715
						c1.593-2.242,1.484-5.289-0.241-6.771s-3.363-4.933-3.642-7.669c0,0-0.433-4.269,0.505-4.653c0.945-0.39,4.438-0.07,4.438-0.07
						c2.739,0.25,3.397,2.055,1.464,4.01c0,0-1.813,1.833-0.865,2.222c0.928,0.385,1.617,0.892,1.617,0.892
						c2.215,1.63,3.389,4.35,2.607,6.044c-0.781,1.695-1.42,4.379-1.42,5.966c0,1.586,1.91,3.231,4.244,3.655
						c2.334,0.424,5.517,1.984,7.072,3.468c1.556,1.483,3.49,4.847,4.3,7.475l1.445,4.691c0.81,2.628,0.931,6.962,0.27,9.632
						c0,0-0.991,4-0.054,4c0.928,0,9.814,5.179,9.814,5.179c2.376,1.385,3.866,0.313,3.311-2.38c0,0-0.578-2.804-1.834-3.573
						c-1.256-0.769-3.258-3.876-3.258-3.876c-1.488-2.312-2.424-5.937-2.078-8.054c0,0,0,0,2.203-1.538
						c2.197-1.552,4.812-3.532,4.812-3.532c2.191-1.661,4.267-4.404,4.61-6.098s1.538-1.022,2.654,1.491l1.586,3.57
						c1.116,2.513,0.263,4.828-1.896,5.144s-2.183,1.999-0.054,3.739l1.686,1.377c2.129,1.74,4.437,1.953,5.127,0.472
						c0,0,0,0,2.186-1.543c2.215-1.538,2.215-1.937,2.215-1.937c0-2.75-1.629-6.552-3.62-8.449c0,0-2.036-1.939-0.161-1.939
						c1.885,0,5.975-0.769,8.488-1.927c2.504-1.154,3.357-11.956,3.357-11.956c0.217-2.741,1.057-7.135,1.865-9.763
						c0,0,0.426-1.383,2.309-1.383c1.867,0,1.867,0,1.867,0c0.866,2.329,0.584,2.214-0.627-0.255l-6.643-13.547
						c-1.211-2.469-3.475-6.345-5.03-8.612l-30.721-30.075c-2.452-1.245-5.919-0.553-7.705,1.538
						C305.546,54.11,301.531,58.811,299.779,56.93z"/>
					<path fill="none" stroke="#000000" stroke-width="2" stroke-miterlimit="10" d="M299.779,56.93
						c-2.523-2.7-2.983-4.745-2.983-4.745c-0.604-2.683-2.958-3.611-5.23-2.063c0,0-1.513,1.03-3.728,4.496
						c-2.193,3.466-9.727,13.094-10.973,12.7c-1.277-0.375-2.814-3.841-2.525-5.388c0.32-1.539-1.256-1.923,1.896-5.385
						c3.143-3.47,0-10.402-1.266-10.402c-1.24,0-0.92-1.542-7.223,1.164C261.482,50,261.482,50,261.482,50
						c-0.345,1.691-0.062,3.423,0.629,3.847s-0.407,2.287-2.44,4.138l-4.867,4.433c-2.033,1.852-3.96,5.601-4.282,8.332
						l-0.055,0.461c-0.322,2.731-0.377,5.919-0.122,7.085s2.002,0.478,3.882-1.53c0,0,3.795-4.051,5.998-3.286
						c2.188,0.778-0.316,12.709-2.832,13.868c-2.504,1.153-2.512,1.153-2.512,1.153c-2.75,0-7.106,0.792-9.68,1.76
						c0,0-3.5,1.316-3.5,4.402c0,3.082,0,3.082,0,3.082c1.383,0.213,1.31,2.033-0.163,4.044s-2.678,5.215-2.678,7.121
						c0,1.906,2.123,3.292,4.718,3.08s5.075-2.03,5.511-4.04c0.436-2.01,3.031-3.886,5.767-4.17c0,0,2.538-0.263,2.856,0.891
						c0.311,1.154,0.311,8.479,6.277,5.777c5.955-2.691,5.025-6.546,5.955-7.701c0.957-1.158,5.465-0.234,5.465-0.234
						c2.694,0.552,4.335,1.523,3.646,2.157c-0.688,0.635-2.716,2.863-4.505,4.951l-0.713,0.831c-1.789,2.088-1.35,4.998,0.976,6.465
						l6.896,4.352c2.325,1.467,5.531,0.833,7.124-1.409l0.508-0.715c1.593-2.242,1.484-5.289-0.241-6.771s-3.363-4.933-3.642-7.669
						c0,0-0.433-4.269,0.505-4.653c0.945-0.39,4.438-0.07,4.438-0.07c2.739,0.25,3.397,2.055,1.464,4.01
						c0,0-1.813,1.833-0.865,2.222c0.928,0.385,1.617,0.892,1.617,0.892c2.215,1.63,3.389,4.35,2.607,6.044
						c-0.781,1.695-1.42,4.379-1.42,5.966c0,1.586,1.91,3.231,4.244,3.655c2.334,0.424,5.517,1.984,7.072,3.468
						c1.556,1.483,3.49,4.847,4.3,7.475l1.445,4.691c0.81,2.628,0.931,6.962,0.27,9.632c0,0-0.991,4-0.054,4
						c0.928,0,9.814,5.179,9.814,5.179c2.376,1.385,3.866,0.313,3.311-2.38c0,0-0.578-2.804-1.834-3.573
						c-1.256-0.769-3.258-3.876-3.258-3.876c-1.488-2.312-2.424-5.937-2.078-8.054c0,0,0,0,2.203-1.538
						c2.197-1.552,4.812-3.532,4.812-3.532c2.191-1.661,4.267-4.404,4.61-6.098s1.538-1.022,2.654,1.491l1.586,3.57
						c1.116,2.513,0.263,4.828-1.896,5.144s-2.183,1.999-0.054,3.739l1.686,1.377c2.129,1.74,4.437,1.953,5.127,0.472
						c0,0,0,0,2.186-1.543c2.215-1.538,2.215-1.937,2.215-1.937c0-2.75-1.629-6.552-3.62-8.449c0,0-2.036-1.939-0.161-1.939
						c1.885,0,5.975-0.769,8.488-1.927c2.504-1.154,3.357-11.956,3.357-11.956c0.217-2.741,1.057-7.135,1.865-9.763
						c0,0,0.426-1.383,2.309-1.383c1.867,0,1.867,0,1.867,0c0.866,2.329,0.584,2.214-0.627-0.255l-6.643-13.547
						c-1.211-2.469-3.475-6.345-5.03-8.612l-30.721-30.075c-2.452-1.245-5.919-0.553-7.705,1.538
						C305.546,54.11,301.531,58.811,299.779,56.93z"/>
				</g>
			</g>
		</g>
		<path fill="#204496" d="M357.176,196.115"/>
		<path fill="#204496" d="M345.465,188.159"/>
		<path fill="#204496" d="M345.6,169.872"/>
		<path fill="#204496" d="M336.025,173.898"/>
		<g>
			<g>
				<g>
					<path fill="#FFDD00" d="M228.702,36.513c-2.75,0.037-6.787,1.433-8.972,3.104c0,0-0.271,0.208,2.882,3.11
						c3.193,2.877,7.112,2.739,7.112,2.739c2.749-0.097,4.962-2.426,4.919-5.176c0,0-0.022-1.425,1.129-0.54
						c1.164,0.902,1.826,1.769,1.826,1.769c1.67,2.185,3.436,4.202,3.923,4.483c0.488,0.28,0.769-1.737,0.623-4.483
						c0,0-0.307-5.808-3.873-5.444C234.706,36.433,228.702,36.513,228.702,36.513z"/>
					<path fill="none" stroke="#000000" stroke-width="2" stroke-miterlimit="10" d="M228.702,36.513
						c-2.75,0.037-6.787,1.433-8.972,3.104c0,0-0.271,0.208,2.882,3.11c3.193,2.877,7.112,2.739,7.112,2.739
						c2.749-0.097,4.962-2.426,4.919-5.176c0,0-0.022-1.425,1.129-0.54c1.164,0.902,1.826,1.769,1.826,1.769
						c1.67,2.185,3.436,4.202,3.923,4.483c0.488,0.28,0.769-1.737,0.623-4.483c0,0-0.307-5.808-3.873-5.444
						C234.706,36.433,228.702,36.513,228.702,36.513z"/>
				</g>
			</g>
		</g>
		<path d="M363.273,150.001c0,62.459-50.814,113.271-113.27,113.271c-62.462,0-113.278-50.813-113.278-113.271
			c0-62.459,50.816-113.273,113.278-113.273C312.459,36.728,363.273,87.542,363.273,150.001z M250.004,32.154
			c-64.983,0-117.852,52.866-117.852,117.847c0,64.981,52.868,117.845,117.852,117.845c64.979,0,117.844-52.863,117.844-117.845
			C367.848,85.02,314.982,32.154,250.004,32.154z"/>
	</g>
	<g>
		<path fill="#FFFFFF" stroke="#000000" stroke-width="5" stroke-miterlimit="10" d="M89.367,121.492
			c-1.656-7.396-4.526-11.096-8.614-11.096c-2.532,0-5.281,1.777-8.249,5.329c-2.97,3.554-5.767,8.103-8.396,13.651
			c-5.938,12.946-9.102,25.649-9.49,38.106c0,6.23,0.924,10.658,2.774,13.286c1.848,2.628,3.99,3.942,6.424,3.942
			c2.432,0,4.72-0.511,6.862-1.533c2.14-1.021,4.038-2.409,5.694-4.161c3.892-4.088,5.936-8.906,6.132-14.454l-15.914,2.336
			l2.774-14.745c13.724-1.752,26.036-3.601,36.938-5.549c-0.682,10.125-2.678,18.957-5.986,26.499
			c-3.31,7.544-7.277,13.848-11.899,18.907c-4.625,5.063-9.613,8.858-14.965,11.388c-5.354,2.53-10.147,3.797-14.381,3.797
			c-4.234,0-8.007-0.804-11.315-2.409c-3.31-1.606-6.182-4.063-8.614-7.373c-5.256-7.008-7.884-16.863-7.884-29.565
			s1.848-23.821,5.548-33.361c3.698-9.538,8.345-17.495,13.943-23.871c5.596-6.374,11.63-11.119,18.104-14.235
			c6.472-3.114,12.093-4.672,16.863-4.672c4.768,0,8.614,0.707,11.534,2.117c2.92,1.412,5.304,3.285,7.154,5.621
			c3.698,4.479,5.548,10.512,5.548,18.104L89.367,121.492z"/>
		<path fill="#FFFFFF" stroke="#000000" stroke-width="5" stroke-miterlimit="10" d="M146.635,201.208
			c-7.496-26.474-11.388-41.512-11.68-45.114l-1.898,0.584c-3.212,17.91-5.598,31.488-7.154,40.734l-24.236,6.278
			c10.122-48.958,16.302-83.707,18.542-104.245c11.29-3.504,23.944-5.256,37.96-5.256c10.512,0,16.74,3.65,18.688,10.95
			c0.584,2.24,0.876,5.014,0.876,8.322c0,3.31-0.682,6.887-2.044,10.731c-1.364,3.846-3.212,7.519-5.548,11.023
			c-4.868,7.106-10.854,12.556-17.958,16.353c3.796,8.176,7.177,15.891,10.147,23.141c2.968,7.252,5.475,13.359,7.519,18.323
			L146.635,201.208z M148.095,114.921l-6.424,0.146l-4.818,23.798c3.892-0.388,8.808-2.87,14.746-7.446
			c6.132-4.672,9.198-8.516,9.198-11.534c0-2.822-2.678-4.428-8.03-4.818C151.208,114.972,149.65,114.921,148.095,114.921z"/>
		<path fill="#FFFFFF" stroke="#000000" stroke-width="5" stroke-miterlimit="10" d="M188.864,97.255
			c2.14-0.194,4.647-0.438,7.519-0.73c2.87-0.292,5.694-0.559,8.468-0.803c2.774-0.242,5.669-0.511,8.687-0.803
			c-2.532,11.972-4.526,21.462-5.986,28.47c-1.46,7.008-2.628,12.606-3.504,16.79c-0.876,4.186-1.656,8.03-2.336,11.534
			c-1.558,7.398-2.58,12.216-3.066,14.454c-1.46,6.716-2.19,11.048-2.19,12.994c0,1.948,0.413,3.431,1.241,4.453
			c0.826,1.021,1.946,1.532,3.358,1.532c1.41,0,2.676-0.68,3.796-2.044c1.118-1.361,2.044-2.968,2.774-4.817
			c0.73-1.848,1.289-3.746,1.679-5.694c0.388-1.946,0.803-3.917,1.241-5.913c0.438-1.994,1.022-4.768,1.752-8.321
			c0.73-3.553,1.46-7.25,2.19-11.097c0.73-3.844,1.483-7.761,2.263-11.753c2.044-10.22,4.428-23.164,7.154-38.836l22.629-1.46
			l-0.729,3.796c-1.168,6.132-2.459,13.213-3.869,21.243c-1.412,8.03-2.701,14.965-3.869,20.805
			c-3.018,15.185-5.256,25.965-6.716,32.339c-1.46,6.376-3.481,11.56-6.059,15.55c-2.58,3.992-5.573,7.3-8.979,9.928
			c-6.522,4.866-14.066,7.3-22.63,7.3c-5.256,0-9.782-1.46-13.578-4.38c-4.284-3.504-6.424-8.126-6.424-13.87
			c0-0.388,0-0.778,0-1.168c0-0.388,0.121-1.702,0.365-3.942c0.242-2.237,0.803-6.253,1.679-12.045
			c0.876-5.79,1.825-11.825,2.847-18.104s2.117-12.579,3.285-18.907c1.168-6.326,2.238-12.068,3.212-17.229
			C187.208,105.432,188.474,99.007,188.864,97.255z"/>
		<path fill="#FFFFFF" stroke="#000000" stroke-width="5" stroke-miterlimit="10" d="M300.736,166.752
			c0,3.602-0.854,7.154-2.556,10.658c-1.704,3.504-3.992,6.668-6.861,9.489c-2.872,2.824-6.23,5.307-10.074,7.446
			c-3.847,2.143-7.909,3.942-12.191,5.402c-8.372,2.92-16.936,4.38-25.696,4.38c-3.7,0-7.154-0.292-10.366-0.876
			c4.768-17.422,8.564-34.99,11.388-52.706c2.822-17.714,5.548-35.526,8.176-53.437c13.626-2.822,24.771-4.234,33.435-4.234
			c10.22,0,17.323,3.504,21.315,10.512c1.557,2.628,2.336,5.865,2.336,9.709c0,3.846-0.608,7.423-1.824,10.731
			c-1.219,3.31-2.8,6.328-4.745,9.052c-3.992,5.452-8.761,9.198-14.309,11.242C296.744,148.99,300.736,156.532,300.736,166.752z
			 M262.338,173.906c8.855-0.973,15.086-3.454,18.688-7.446c1.556-1.752,2.336-3.698,2.336-5.84c0-2.14-0.464-3.819-1.388-5.037
			c-0.926-1.216-2.117-2.213-3.577-2.993c-2.92-1.556-6.084-2.336-9.489-2.336h-1.314c-0.39,0-0.78,0.05-1.168,0.146
			c-0.39,2.434-0.755,4.577-1.095,6.424c-0.343,1.85-0.657,3.627-0.949,5.329c-0.292,1.703-0.609,3.48-0.949,5.328
			C263.091,169.332,262.726,171.474,262.338,173.906z M269.93,132.003c12.166-2.724,18.25-6.082,18.25-10.074
			c0-3.796-3.116-6.18-9.344-7.154c-1.559-0.292-2.92-0.438-4.088-0.438h-1.606c-0.196,1.072-0.415,2.361-0.656,3.869
			c-0.244,1.51-0.512,3.066-0.804,4.672s-0.608,3.212-0.949,4.818C270.391,129.303,270.124,130.74,269.93,132.003z"/>
		<path fill="#FFFFFF" stroke="#000000" stroke-width="5" stroke-miterlimit="10" d="M342.527,95.211
			c-11.096,56.455-17.862,91.592-20.294,105.413c-2.727,0-7.446,0.438-14.162,1.313s-10.17,1.364-10.366,1.46
			c3.114-11.289,5.986-23.602,8.614-36.938c6.033-30.464,10.315-52.999,12.848-67.599L342.527,95.211z"/>
		<path fill="#FFFFFF" stroke="#000000" stroke-width="5" stroke-miterlimit="10" d="M402.276,199.164
			c-4.672-0.194-9.563-0.292-14.673-0.292c-5.11,0-10.489,0.098-16.134,0.292c-1.948-12.557-3.894-26.134-5.84-40.734l-2.773,3.066
			c-0.683,3.018-1.438,6.716-2.264,11.096c-0.828,4.38-1.679,8.785-2.555,13.213c-0.876,4.431-1.803,9.176-2.774,14.235
			l-24.235,3.65c10.512-48.666,16.79-85.069,18.834-109.209c2.336,0.292,4.938,0.511,7.811,0.657
			c2.87,0.146,5.669,0.317,8.396,0.511c2.724,0.196,5.596,0.292,8.613,0.292c-0.098,0.39-0.244,1.12-0.438,2.19
			c-0.196,1.072-0.438,2.386-0.73,3.942c-0.292,1.558-0.608,3.285-0.948,5.183c-0.343,1.898-0.828,4.43-1.46,7.592
			c-0.635,3.164-1.438,7.471-2.409,12.921l0.876-0.146c2.724-4.184,5.548-8.614,8.468-13.286c5.84-9.246,9.928-15.622,12.264-19.126
			c11.192-0.876,21.12-1.994,29.784-3.358c-16.936,22.972-28.52,39.47-34.748,49.494c2.14,10.026,4.72,19.735,7.738,29.127
			C396.094,179.869,399.16,189.432,402.276,199.164z"/>
		<path fill="#FFFFFF" stroke="#000000" stroke-width="5" stroke-miterlimit="10" d="M452.39,127.186
			c0.485-1.946,0.729-3.99,0.729-6.132c0-2.14-0.536-3.869-1.605-5.183c-1.072-1.314-2.216-1.971-3.432-1.971
			c-1.218,0-2.408,0.292-3.577,0.876c-1.168,0.584-2.336,1.364-3.504,2.336c-2.726,2.24-4.088,4.649-4.088,7.227
			c0,2.581,0.68,4.672,2.044,6.278c1.362,1.606,3.041,3.091,5.037,4.453c1.994,1.364,4.161,2.774,6.497,4.234s4.526,3.31,6.57,5.548
			c4.672,5.452,7.008,12.702,7.008,21.754c0,10.902-3.992,19.906-11.972,27.011c-7.593,6.813-17.181,10.22-28.763,10.22
			c-8.565,0-16.402-4.476-23.506-13.432l11.096-21.755c1.362,2.727,3.99,5.209,7.885,7.446c3.892,2.336,6.812,3.504,8.76,3.504
			c1.946,0,3.577-0.193,4.891-0.584c1.314-0.388,2.505-0.972,3.577-1.752c2.432-1.752,3.65-3.869,3.65-6.351
			c0-2.482-0.78-4.745-2.336-6.789c-1.559-2.044-3.481-3.99-5.768-5.84c-2.288-1.848-4.77-3.724-7.445-5.621
			c-2.679-1.898-5.136-3.917-7.373-6.06c-5.452-4.866-8.177-9.976-8.177-15.33c0-5.352,1.533-10.268,4.6-14.746
			c3.065-4.476,6.91-8.345,11.534-11.607c4.621-3.26,9.684-5.84,15.184-7.738c5.498-1.898,10.147-2.847,13.943-2.847
			s6.885,0.342,9.271,1.022c2.384,0.682,4.453,1.704,6.205,3.066c3.796,3.116,5.694,7.69,5.694,13.724
			c0,1.46-0.123,2.872-0.365,4.234c-0.244,1.364-0.463,2.873-0.657,4.526L452.39,127.186z"/>
	</g>
</g>
</svg>
